<?xml version="1.0" encoding="utf-8"?>
<!-- Generator: Adobe Illustrator 17.0.0, SVG Export Plug-In . SVG Version: 6.00 Build 0)  -->
<!DOCTYPE svg PUBLIC "-//W3C//DTD SVG 1.1//EN" "http://www.w3.org/Graphics/SVG/1.1/DTD/svg11.dtd">
<svg version="1.1" xmlns="http://www.w3.org/2000/svg" xmlns:xlink="http://www.w3.org/1999/xlink" x="0px" y="0px"
	 width="724.885px" height="215.473px" viewBox="0 0 724.885 215.473" enable-background="new 0 0 724.885 215.473"
	 xml:space="preserve">
<metadata><?xpacket begin="﻿" id="W5M0MpCehiHzreSzNTczkc9d"?>
<x:xmpmeta xmlns:x="adobe:ns:meta/" x:xmptk="Adobe XMP Core 5.5-c014 79.151739, 2013/04/03-12:12:15        ">
   <rdf:RDF xmlns:rdf="http://www.w3.org/1999/02/22-rdf-syntax-ns#">
      <rdf:Description rdf:about=""
            xmlns:xmp="http://ns.adobe.com/xap/1.0/"
            xmlns:xmpGImg="http://ns.adobe.com/xap/1.0/g/img/"
            xmlns:dc="http://purl.org/dc/elements/1.1/"
            xmlns:xmpMM="http://ns.adobe.com/xap/1.0/mm/"
            xmlns:stEvt="http://ns.adobe.com/xap/1.0/sType/ResourceEvent#"
            xmlns:stRef="http://ns.adobe.com/xap/1.0/sType/ResourceRef#"
            xmlns:photoshop="http://ns.adobe.com/photoshop/1.0/"
            xmlns:tiff="http://ns.adobe.com/tiff/1.0/"
            xmlns:exif="http://ns.adobe.com/exif/1.0/"
            xmlns:xmpTPg="http://ns.adobe.com/xap/1.0/t/pg/"
            xmlns:stDim="http://ns.adobe.com/xap/1.0/sType/Dimensions#"
            xmlns:xmpG="http://ns.adobe.com/xap/1.0/g/">
         <xmp:CreatorTool>Adobe Illustrator CC (Windows)</xmp:CreatorTool>
         <xmp:CreateDate>2019-11-09T11:30:29-05:00</xmp:CreateDate>
         <xmp:MetadataDate>2019-11-09T11:30:30-05:00</xmp:MetadataDate>
         <xmp:ModifyDate>2019-11-09T11:30:30-05:00</xmp:ModifyDate>
         <xmp:Thumbnails>
            <rdf:Alt>
               <rdf:li rdf:parseType="Resource">
                  <xmpGImg:width>256</xmpGImg:width>
                  <xmpGImg:height>76</xmpGImg:height>
                  <xmpGImg:format>JPEG</xmpGImg:format>
                  <xmpGImg:image>/9j/4AAQSkZJRgABAgEASABIAAD/7QAsUGhvdG9zaG9wIDMuMAA4QklNA+0AAAAAABAASAAAAAEA&#xA;AQBIAAAAAQAB/+4ADkFkb2JlAGTAAAAAAf/bAIQABgQEBAUEBgUFBgkGBQYJCwgGBggLDAoKCwoK&#xA;DBAMDAwMDAwQDA4PEA8ODBMTFBQTExwbGxscHx8fHx8fHx8fHwEHBwcNDA0YEBAYGhURFRofHx8f&#xA;Hx8fHx8fHx8fHx8fHx8fHx8fHx8fHx8fHx8fHx8fHx8fHx8fHx8fHx8fHx8f/8AAEQgATAEAAwER&#xA;AAIRAQMRAf/EAaIAAAAHAQEBAQEAAAAAAAAAAAQFAwIGAQAHCAkKCwEAAgIDAQEBAQEAAAAAAAAA&#xA;AQACAwQFBgcICQoLEAACAQMDAgQCBgcDBAIGAnMBAgMRBAAFIRIxQVEGE2EicYEUMpGhBxWxQiPB&#xA;UtHhMxZi8CRygvElQzRTkqKyY3PCNUQnk6OzNhdUZHTD0uIIJoMJChgZhJRFRqS0VtNVKBry4/PE&#xA;1OT0ZXWFlaW1xdXl9WZ2hpamtsbW5vY3R1dnd4eXp7fH1+f3OEhYaHiImKi4yNjo+Ck5SVlpeYmZ&#xA;qbnJ2en5KjpKWmp6ipqqusra6voRAAICAQIDBQUEBQYECAMDbQEAAhEDBCESMUEFURNhIgZxgZEy&#xA;obHwFMHR4SNCFVJicvEzJDRDghaSUyWiY7LCB3PSNeJEgxdUkwgJChgZJjZFGidkdFU38qOzwygp&#xA;0+PzhJSktMTU5PRldYWVpbXF1eX1RlZmdoaWprbG1ub2R1dnd4eXp7fH1+f3OEhYaHiImKi4yNjo&#xA;+DlJWWl5iZmpucnZ6fkqOkpaanqKmqq6ytrq+v/aAAwDAQACEQMRAD8A9U4q07oiM7sFRQSzE0AA&#xA;3JJOKvNfNv5++SdDd7exdtavU2KWpAgB8GnNVP8AsA2ZmLRTlz2DfDBI+TyfXv8AnInz7qBZLA2+&#xA;kwnp6EYklp4F5eY+lVGZ0NDAc92+OniGD6l5z83amSb/AFm9uQ3VHnkKfQleI+gZkxxQHIBtEAOi&#xA;TszMxZiWZjUk7kk5YyV7TUL+zcSWdzLbODUPC7RmvzUjAYg81ItnXlj89PP2iSotxeHV7NSOdve/&#xA;vGI70m/vAfmSPbMXJo8culNMsES+ivIP5h6D50003WnMYrqGgvbGT+8iZunsymnwsPwO2anPgljN&#xA;FxMmMxO7KMpa3Yq7FXYq7FXYq7FXYq7FXYq7FXYq7FXYq7FXYq7FXYq7FXYq7FXYq7FUk83+cNE8&#xA;qaQ+p6tNwjHwwwrvJLJSoSNe5/Ad8sxYpTNBlCBkaD5c8/8A5seZ/OEzxTSmz0iv7rTIWPCgOxlb&#xA;YyN89vADN1g00cfv73Px4hH3sJzJbFa0s7u8uEtrOCS5uZTxjghVndj4Kqgk4CQNypNM60r8ifzK&#xA;1BVc6atlG3RrqVIz9KAtIPpXMaWsxjrbUc8Qna/84z+fWUE3ulqT1UzT1H3QEZV/KEO4/j4sPzMf&#xA;NLdS/wCcfPzJs1LQ21vfhak/Vp1rQeAm9InJx12M+TIaiJYHqui6vpF0bXVLOayuB/uqdGjYjxHI&#xA;Co9xmVGYkLBttBB5Jz+XHmufyv5w0/U1k4W3qCG+Xs1vIQJK/wCqPiHuBlefFxwIY5I8Qp9nZzzr&#xA;XYq7FXYq7FXYq7FXYq7FXYq7FXYq7FXYq7FXYq7FXYq7FXYq7FXYq7FXyB+bfnW680+b7uT1CdNs&#xA;Xe206IH4RGhoZKeMhHKvhQds32lwiEB3l2OKHCGFqrMQFBJPQDMglujEyNAWVR7W4ReTRsF7mmRE&#xA;werkZNFmgLlEgPpn/nHby5pdp5KTW440fUtSklE05FXSOKQxrED2Hwcz41+WanX5CZ8PQOo1EjxU&#xA;9WzBcd2KuxVLfMHlvRPMOnPp+sWkd3bP0Dj4kalOUbD4kb3U5OGSUDYLKMiDYfJv5nfl9deSvMBs&#xA;yzT6dcgy6ddMKF0BoyNTbmlaN9B75vNPnGSN9XPxZOIPrPy3cvdeXdLuX+3PaQSN33eJWP680eQV&#xA;IjzcCQ3KY5Bi7FXYq7FXYq7FXYq7FXYq7FXYqpT3dtbis8qR16ciBX5Yq62u7a5UvBIJFBoSPHFV&#xA;XFXYq7FXYq7FXYq7FXYq7FXwYwZWKuCGBowPUHvXOndqmekRJweWnxV4g+ApXMXUS3p6jsDDHhlP&#xA;+K6TDMd6FmH5afnAfI/1vSb20e90iWT14hEwEsMjKOXEN8LK1BtUeOSy6bxQJXu+e9raSMc8hHb9&#xA;otlerf8AOUFsKLpGhu/jJdyhKe3CMPX/AILK49nHqXWjTd5S6x/5yg1dZx9f0S3kty24gleNwvzc&#xA;SAkfRkj2cOhZHTDve3+VPNOleaNDg1jS3LW09QUcAPG6mjI4BNGGa7LjMJUXFlExNFN8rYvMv+ch&#xA;dDi1D8vZr7j+/wBKniuI2pvxdhC6/L94GPyzM0M6yV3t+nlUmf6PFHZaVY2LMqyW1vFCUBGxRAtK&#xA;fRmLM2SWkmyjsihSmvLSDaaZIz4MwB+44q2bq2ESytKixsKq5YAEfM4qh21nS1NDcx/Qa/qxVUi1&#xA;KwmIEdxGzHovIV+44qiMVWCeEtxEilvCoriq/FUNLqmnQtxkuEDDqKgkfOmKr4L20uP7mZJD4KQT&#xA;93XFVt7eR21vLJyX1EQsqEipIG22KsEmmlnlaWVi8jGrMcVZJ5VmiSzmDuqkybAkD9keOKp2bi3F&#xA;KyoK7j4hirvrNt/v1P8AghiqoCCAQag7gjFVjTwoeLyKp8CQDirX1m2/36n/AAQxVuSeGNOckion&#xA;8zEAfecVQzaxpamhuY/oNf1Yqvi1LT5TSO4jYnoOQB+44qicVfGX5l6E+h+etZsCvCMXLzW47ejO&#xA;fVjp40V6Z0OnnxQBdljlcQkVleG3YgjlG3UDr8xhyY+J23ZvaJ08iCLgUc2qQEUjVnc7KtOpOUDA&#xA;ervMnbuERuIJL1zyT/zjrNfwJqXm65ktTNR1023oJQDuPVkYMFP+SBX3ByjLrhHaDxep1pnMy6l6&#xA;bp/5N/lpYqBHocMpHVrhpJyT7+ozD8Mw5avIeriHNI9Ub/yrL8vf+pdsP+RCf0yP5jJ/OLHxJd6c&#xA;aPoej6Nata6TZw2Ns7mVoYECKXIClqDvRRlcpmRsm2JkTzR2RQl/mDSU1fSZdOkp6U7R+ry6cFlV&#xA;28d+KmmThLhNpiaNsY17/jr3PzH/ABEZBClBqd/BG0cU7KjClK1p8q9PoxVCkkkkmpPUnFURcrJJ&#xA;OiIC59KKiipP92vbFXfo3UacvqstPHg39MVQ5BBIIoR1BxVONC1qe3nS3mcvbuQo5GvAnYEe2Kpb&#xA;ff723H/GR/8AiRxVtL+8SBoFmcRP1Su39mKqGKto7o4dGKupqrDYg4qiL+9e8mWZ/wC84KrnxK7V&#xA;+nFUNirsVZNFpKX+g23GguI1b028fiPwn2xVjUkbxuyOpV1NGU9QRiqa6Xr8tlbSQMvqKATBX9lj&#xA;2PtiqVzSyTStLIxaRzVmPjiqb+X9G+tSC5nX/RkPwqf22H8Biqjr6yPrMyICxHAKoqduC9BiqE/R&#xA;uo05fVZaePBv6Yqh2UqSGBBGxB64qm+h61PbTpBK5a2chaHfhXuPbFXn3/OSnk557Oz81WqVe1At&#xA;NQoP91MxMTn/AFXYqf8AWGbLs/LRMS5Wmn0fPebVy3oP5FaJb6r+Y1j9YQSRWKSXpQ9C8QAjP+xk&#xA;ZW+jMXWT4cZ82rPKovrPNE69hn5refpPJXlpdQtoFuL65mW2tUkr6YYqzl340JACdARmRpsHiSro&#xA;2YsfEaeDTf8AOQX5mSSFlvYIlPREt4iB/wAGGP45sxocfc5f5eL6K/LzVNW1byVpOpauwbULyH1p&#xA;WChAQzEoeKgAVSmanPERmQOTh5ABIgMiypg7FWEa9/x17n5j/iIxVQ061W6vYrdmKrIaEjrQCuKs&#xA;wXTtKsoGk9FAkY5M7Dk1B7mpxVj1z5jumkb6oq20Z7qoLEAUFScVQy67qwNRctX3CkfcRiqhe3s1&#xA;5KJZgvqAcSyinKnc++KqAJBqOoxVWvv97bj/AIyP/wASOKovQLOG61FUmHJFUvx7EinX78VZFrdn&#xA;bHSpiIlUxryQgAUIPamKsMxVP9IJ/wAPX47fH/xAYqkGKsq8pf7xTf8AGT/jUYqnmKpB5o0+Aw/X&#xA;QwSVSFYH9sHp9IxVjGKovSrOO8vY4JHCIdz4mnYe5xVm/wC4trftHDEv0BVGKsVu/Ml08rtaKtur&#xA;dW4gu1NgWJ9sVQw13Vg3IXLV9wpH3EYqoXt9NeSLJMF9QDiXUULfPFUPirPdS06z1LT7jT72MTWl&#xA;1G0U8Z6FHFDhjIg2Eg1u+NvPvk2/8o+ZLjSLoFogfUs7giglgYng49+ze4OdBhyjJGw7HHPiFpn+&#xA;TvmW28v+f9Ou7uT0rO452lzITQKsworMf5RJxJ9shqsfHjICM0bi+v8ANC65JPOHlDR/NmiSaRqq&#xA;sYGYSRyRnjJHIoIV0JBFQGI3HfLMWUwlYZQmYmw8+0j/AJxr8n2l8lxfXt1qEEZ5C1fhGjU7OUHI&#xA;j5EZly7QmRsKbjqZPV4zawGK0jKRkRkw24oD6cdFPFf5V5KPaozB3O7jquBXYqwjXv8Ajr3PzH/E&#xA;RirtB/469t8z/wAROKsm8xB/0RPx/wAmvy5DFWFYqnfl9tHWKX64I/Wr8PqgEcadq964qgtZfTmu&#xA;/wDQV4xgUYioUtXsDiqBxVWvv97bj/jI/wDxI4qmXlX/AI6Z/wCMbfrGKsh1r/jlXP8AqfxxVg2K&#xA;sg0VGfQb9VFWPOg/2AxVj+Kppo+tnT0kjaL1EchhQ0IPTwOKsg0zWFu7Wa5lUQxxNTrXYAHc4qxn&#xA;V9Ukv7jlusKbRJ7eJ9ziqDSKRwxRSwQcnIFaDxOKtKzKwZSVZTUEbEEYqyGTV/r2hXCMaXUarzA2&#xA;5LzFWH8cVY7iqdeXm0gJL9d9P1ajj6oBHGnau1cVQmsvprXQ+oLRAPjIqFLewOKoDFXo2KsQ/M38&#xA;vLHzroJtWKw6nbVk067P7DnqjU34PSjff2zI0+c45X0bMeThL5F1bSdQ0nUbjTdRha3vLZyk0Tih&#xA;BHf3BG4PcZvYyEhYdgCCLD1L8vP+cgNS0Gzh0rX7d9T0+EBILmNh9ZjQdF+KiyAdBUgjxzCz6ESN&#xA;x2LRkwA7h6pa/n5+V80QeTU5LZj/ALqltrgsP+RaSL+OYR0WXuaDgkgNc/5yK8hWUDnTDPq1xT92&#xA;kcbQxk0/aeYIwHyU5KGgmeeyY6eR5vEL/wDNrzjdeck81JciC8hHpW9ugJgWCtTCVP2lbq1d677b&#xA;U2UdNAQ4XKGKPDT6I/Kn8xb/AM76ZcXdzpRsRassRuVflDNIRVhGCAy8RSo369c1OpwDGaBtw8uP&#xA;hPNnOYzUxvVPL1/dX808ZTg5BWpIOwA8MVdpfl6/tb+GeQpwQktQkncEeGKsiljSWNo5ByRwVYHu&#xA;DirF73yrdo5NqRLH+ypPFh9+2KoVfLmsFqGAKPEulPwJxVG/4Sn+r19ZfrFfs78KeFev4YqhR5Z1&#xA;YtT01A/m5CmKq9z5Z1GS5lkUx8XdmFWPQmvhiqM0TRL2yvTNMUKFCvwkk1JHtiqbajbyXFjNBHTn&#xA;ItFrsMVYz/hXU/GP/gj/AExVO9B064sbaSOfiWZ+Q4mopQDwGKpZqXleb1WksqMjGvpE0I9gTtTF&#xA;UCPLusE09CnuXT+uKoseX9ZFr9WDxiIt6jLyO5oBvt2xVS/wrqfjH/wR/pirIdL0uGxtvSFGd/75&#xA;/wCY+HyxVJr/AMrTm5ZrQoIW3CsSCp8Oh2xVRi8tatG4ZWir0I5GhB2IO3Q4q3c+Vr1aPBxcEVMf&#xA;LdT4AmgOKoZfLmsE0MHEeJdKfgcVRo8pT/VyTMv1iuy78KeFeuKoUeWdW5U9NQPHkKYqzHFXYqwf&#xA;8zPyr0jzrZepUWmtwLS0vwK1HX05QPtIfvXqO4OTp9ScZ8m3HlMfc+W/NHlPXvLGpNp+s2rW8wqY&#xA;36xyqP2436Mv+ZzdY8sZiw50ZiQsJPljJ2Ksr/L38vdY856wlrao0WnxMDf35HwRJ3APQuR9lf4V&#xA;OUZ84xizzYZMgiH13oWiaboek22labEIbO0QJEnc9yzHuzHcnxzQzmZGzzddKRJso7IodirsVdir&#xA;sVdirsVdirsVdiqB1zVodI0e91SZS8VnC8zIvVuArxFfHphiLNN2mwHLkjAc5GmFeVfzK1XVdZsb&#xA;O7sojb6ijMr20d2rWzBS6rM08Ucb1G3KM0r7ZdPEAHc63smGLHKUZG4d5j6vdRJHxeh5Q6Bgtt+Y&#xA;Gpv5rOkXVtbWURu2tYoLp5YrmSMbLPGzJ6LhuyK1cuOMcNu6n2ZAYPEiZSPDdijEeR34h72dZS6V&#xA;hnlnU/NVx548x2d61u2nWckAWNXkLRCSAPH6QKAHmN5KnZulRlswOEO31mHBHTYpRvjlfdvvve/T&#xA;p5MwuJDFBJIBUorMB8hXKnVRFkBi3+NLn9B+V9R+rx+pr9zbW8sfI0jW4jd2ZfHjx75Zwbkdzsv5&#xA;PHi5YX/dRkffRDLMrdWwXWfNfmK+i8wLo1hbvpujetbXktxM6TSukXKQQKqlV4A/tHfLowAq+ru8&#xA;GiwwOPxJS48lEUNhvte/XyTvyAzN5J0NmJZjZQkk7k/AMhk+ouF2mP8ACcn9YqOp3ECefdEgaDlN&#xA;LaXZSf1JBwCcKj0weDVr1Iwgeks8MCdLkN7CUdqHn15slyt1zzz/AJWJ5j/Qv+LP0da/4U9Xjx9V&#xA;/r3o+r6PrUp6f2v2Ov68v8MXw9Xf/wAlYfE8Dil49dw4bq67/i9Dyh0DsVdiqRedP8HfoST/ABb9&#xA;V/RVd/rdKc6Gnp/t86dOHxeGW4uPi9HNnDivZ8oedv8AlXf11/8ACP1/0eW/1rh6NP8Aiqv72n+v&#xA;vm7w+JXrpz4cXVCeUP8AB36Wj/xV9b/R1RX6nxr/ALOvxcfHjv4ZLLx16atM+Ktn175O/wAKf4ft&#xA;v8Leh+hqfuPq32a/tcq/Fz/m5fF45ocvFxerm66d3vzTrK2LsVdirsVdirsVdirsVdirsVdiqE1f&#xA;9Hfoq8/SfH9HejJ9c9T7Po8Tz5U7ccIu9m3Bx8ceD67Fe/owTyX/AIQ/TNl9U/THqei/6F/SfrfV&#xA;vQpv9W5fDTh05dvoy6fFXR3faH5jw5cXh8/XwVxX/S/Y9Gyh595z/wA6L/iaDl+kfR/SX+ic/V/R&#xA;n6T5H+75f7s5V6fDXL/VXTl8aeg/wnwT9F8G/Lj4PPy+16NlDz7Fbf8AQP8Aj+6+p/XP0t6Mf6U9&#xA;Hn9T/u/3H1j9n1PT+xlhvh8nZy8X8qOLh4LPDf1c9+HyvmypuPE8qcab16Uyt1geVaZ/yr79I6N6&#xA;X6Y+r/XE/wAP+v6/1L1OR/uOXw8OXXlv4bZkHio8vN6fN+b4J34d8PrquL4+b1XMd5h5t5p/wH+l&#xA;dS9X9KUoP8Rfoz6x9U+zt9b9P4a8evHfx75fDiocvJ6HR/muCNeH/Q4+Hi/zb/HczXyt+jP8Oab+&#xA;iuf6N+rx/VPU+36XH4eVe9Mqndm3T6zj8aXH9dm/eh7/APQn+LtK9f1P0v8AV7n6lSvp+l8Hq8vf&#xA;pTCL4T3NmPxPy86rw7jfv3pPMg4Tyn/kHH18/wDHU/w/9c3/AL39B/Wef/A8fV/2NfbMn110v7Xp&#xA;/wDDOH/J+Lw+Xi8P9nxf/9k=</xmpGImg:image>
               </rdf:li>
            </rdf:Alt>
         </xmp:Thumbnails>
         <dc:format>image/svg+xml</dc:format>
         <xmpMM:InstanceID>xmp.iid:279846d9-155f-db4f-993e-1860ea34aa75</xmpMM:InstanceID>
         <xmpMM:DocumentID>xmp.did:279846d9-155f-db4f-993e-1860ea34aa75</xmpMM:DocumentID>
         <xmpMM:OriginalDocumentID>xmp.did:4bdd13ca-11d8-7e42-9339-1afd1ab0fd05</xmpMM:OriginalDocumentID>
         <xmpMM:History>
            <rdf:Seq>
               <rdf:li rdf:parseType="Resource">
                  <stEvt:action>created</stEvt:action>
                  <stEvt:instanceID>xmp.iid:4bdd13ca-11d8-7e42-9339-1afd1ab0fd05</stEvt:instanceID>
                  <stEvt:when>2018-08-28T16:53:24-05:00</stEvt:when>
                  <stEvt:softwareAgent>Adobe Photoshop CC (Windows)</stEvt:softwareAgent>
               </rdf:li>
               <rdf:li rdf:parseType="Resource">
                  <stEvt:action>saved</stEvt:action>
                  <stEvt:instanceID>xmp.iid:417e013e-5976-2442-8a8c-22f34453ef67</stEvt:instanceID>
                  <stEvt:when>2018-08-28T18:01:13-05:00</stEvt:when>
                  <stEvt:softwareAgent>Adobe Photoshop CC (Windows)</stEvt:softwareAgent>
                  <stEvt:changed>/</stEvt:changed>
               </rdf:li>
               <rdf:li rdf:parseType="Resource">
                  <stEvt:action>saved</stEvt:action>
                  <stEvt:instanceID>xmp.iid:08d6d75e-b738-7943-ae80-ccf06cde6e7b</stEvt:instanceID>
                  <stEvt:when>2019-11-09T11:24:46-05:00</stEvt:when>
                  <stEvt:softwareAgent>Adobe Photoshop CC (Windows)</stEvt:softwareAgent>
                  <stEvt:changed>/</stEvt:changed>
               </rdf:li>
               <rdf:li rdf:parseType="Resource">
                  <stEvt:action>converted</stEvt:action>
                  <stEvt:parameters>from application/vnd.adobe.photoshop to image/tiff</stEvt:parameters>
               </rdf:li>
               <rdf:li rdf:parseType="Resource">
                  <stEvt:action>derived</stEvt:action>
                  <stEvt:parameters>converted from application/vnd.adobe.photoshop to image/tiff</stEvt:parameters>
               </rdf:li>
               <rdf:li rdf:parseType="Resource">
                  <stEvt:action>saved</stEvt:action>
                  <stEvt:instanceID>xmp.iid:7aef94f8-203f-ba46-80da-854f9c41575b</stEvt:instanceID>
                  <stEvt:when>2019-11-09T11:24:46-05:00</stEvt:when>
                  <stEvt:softwareAgent>Adobe Photoshop CC (Windows)</stEvt:softwareAgent>
                  <stEvt:changed>/</stEvt:changed>
               </rdf:li>
               <rdf:li rdf:parseType="Resource">
                  <stEvt:action>saved</stEvt:action>
                  <stEvt:instanceID>xmp.iid:279846d9-155f-db4f-993e-1860ea34aa75</stEvt:instanceID>
                  <stEvt:when>2019-11-09T11:30:30-05:00</stEvt:when>
                  <stEvt:softwareAgent>Adobe Illustrator CC (Windows)</stEvt:softwareAgent>
                  <stEvt:changed>/</stEvt:changed>
               </rdf:li>
            </rdf:Seq>
         </xmpMM:History>
         <xmpMM:DerivedFrom rdf:parseType="Resource">
            <stRef:instanceID>xmp.iid:7aef94f8-203f-ba46-80da-854f9c41575b</stRef:instanceID>
            <stRef:documentID>adobe:docid:photoshop:20ce43a9-e725-e144-b12a-a0bf81ddac79</stRef:documentID>
            <stRef:originalDocumentID>xmp.did:4bdd13ca-11d8-7e42-9339-1afd1ab0fd05</stRef:originalDocumentID>
         </xmpMM:DerivedFrom>
         <photoshop:ColorMode>3</photoshop:ColorMode>
         <tiff:ImageWidth>1944</tiff:ImageWidth>
         <tiff:ImageLength>936</tiff:ImageLength>
         <tiff:BitsPerSample>
            <rdf:Seq>
               <rdf:li>8</rdf:li>
               <rdf:li>8</rdf:li>
               <rdf:li>8</rdf:li>
            </rdf:Seq>
         </tiff:BitsPerSample>
         <tiff:Compression>1</tiff:Compression>
         <tiff:PhotometricInterpretation>2</tiff:PhotometricInterpretation>
         <tiff:Orientation>1</tiff:Orientation>
         <tiff:SamplesPerPixel>3</tiff:SamplesPerPixel>
         <tiff:PlanarConfiguration>1</tiff:PlanarConfiguration>
         <tiff:XResolution>3000000/10000</tiff:XResolution>
         <tiff:YResolution>3000000/10000</tiff:YResolution>
         <tiff:ResolutionUnit>3</tiff:ResolutionUnit>
         <exif:ColorSpace>65535</exif:ColorSpace>
         <exif:PixelXDimension>1944</exif:PixelXDimension>
         <exif:PixelYDimension>936</exif:PixelYDimension>
         <xmpTPg:MaxPageSize rdf:parseType="Resource">
            <stDim:w>255.723395</stDim:w>
            <stDim:h>76.014029</stDim:h>
            <stDim:unit>Millimeters</stDim:unit>
         </xmpTPg:MaxPageSize>
         <xmpTPg:NPages>1</xmpTPg:NPages>
         <xmpTPg:HasVisibleTransparency>False</xmpTPg:HasVisibleTransparency>
         <xmpTPg:HasVisibleOverprint>False</xmpTPg:HasVisibleOverprint>
         <xmpTPg:PlateNames>
            <rdf:Seq>
               <rdf:li>Cyan</rdf:li>
               <rdf:li>Magenta</rdf:li>
               <rdf:li>Yellow</rdf:li>
               <rdf:li>Black</rdf:li>
            </rdf:Seq>
         </xmpTPg:PlateNames>
         <xmpTPg:SwatchGroups>
            <rdf:Seq>
               <rdf:li rdf:parseType="Resource">
                  <xmpG:groupName>Grupo de muestras por defecto</xmpG:groupName>
                  <xmpG:groupType>0</xmpG:groupType>
               </rdf:li>
            </rdf:Seq>
         </xmpTPg:SwatchGroups>
      </rdf:Description>
   </rdf:RDF>
</x:xmpmeta>
                                                                                                    
                                                                                                    
                                                                                                    
                                                                                                    
                                                                                                    
                                                                                                    
                                                                                                    
                                                                                                    
                                                                                                    
                                                                                                    
                                                                                                    
                                                                                                    
                                                                                                    
                                                                                                    
                                                                                                    
                                                                                                    
                                                                                                    
                                                                                                    
                                                                                                    
                                                                                                    
                           
<?xpacket end="w"?>
	</metadata>
<g id="Fondo_xA0_Imagen_1_">
</g>
<g id="Logo_Nov_2019_1_">
	<g id="Gris">
		<g>
			<path fill-rule="evenodd" clip-rule="evenodd" fill="#CACACA" d="M274.979,87.392c-6.857,0-13.158,0.988-18.909,2.962
				c-5.751,1.977-10.255,4.648-13.506,8.016c0,0-7.647-9.061-33.635-9.061c0,19.729,0,83.64,0,83.64h34.855v-46.873
				c2.091-3.833,5.983-6.736,11.677-8.713c5.691-1.974,12.199-2.962,19.519-2.962V87.392z M636.131,89.309h-39.561l-14.116,16.902
				l-13.942-16.902h-39.561l33.81,40.426l-33.185,39.945v-24.436c-3.834,2.208-7.842,3.311-12.025,3.311
				c-3.72,0-6.361-0.898-7.93-2.701c-1.568-1.8-2.353-4.792-2.353-8.974v-24.046h18.647V89.309h-18.647V64.217
				c0,0-35.03-3.772-35.03,25.092h-11.502v22.072c-1.233-6.229-3.751-11.411-7.564-15.538c-5.637-6.099-14.438-9.148-26.403-9.148
				c-5.345,0-10.457,0.931-15.336,2.788c-4.88,1.86-9.122,4.53-12.722,8.015c0,0-3.563-8.19-33.635-8.19c0,10.643,0,83.64,0,83.64
				h34.855v-49.661c3.717-6.273,9.062-9.41,16.033-9.41c3.717,0,6.418,1.018,8.104,3.049c1.683,2.034,2.527,5.026,2.527,8.974
				v47.048h35.03v-51.927c0-2.901-0.215-5.627-0.63-8.19h11.244v29.1c0,10.341,2.789,18.53,8.365,24.569
				c5.577,6.042,13.768,9.061,24.573,9.061c5.577,0,10.195-0.378,13.855-1.133c3.038-0.628,5.972-1.518,8.811-2.664l-0.983,1.183
				h39.212l16.556-19.69l16.556,19.69h39.212l-36.075-43.214L636.131,89.309z M349.3,95.93c-8.482-6.156-20.799-9.235-36.947-9.235
				c-6.971,0-13.536,0.553-19.693,1.655c-6.16,1.105-11.154,2.587-14.988,4.443v23.001c8.48-4.065,17.776-6.099,27.884-6.099
				c6.737,0,11.995,0.988,15.772,2.962c3.774,1.977,5.664,4.879,5.664,8.713v1.568c-3.023-1.394-6.74-2.554-11.154-3.485
				c-4.417-0.928-8.774-1.394-13.071-1.394c-11.968,0-21.087,2.469-27.361,7.406c-6.274,4.939-9.411,12.11-9.411,21.52
				c0,9.178,3.224,16.235,9.672,21.171c6.448,4.936,15.015,7.406,25.706,7.406c5.925,0,11.328-0.844,16.208-2.527
				c4.88-1.683,8.714-3.921,11.502-6.709c0,0,8.06,12.934,32.938,6.622c0-7.345,0-50.881,0-50.881
				C362.022,110.801,357.78,102.089,349.3,95.93z M326.993,149.076c-1.394,1.86-3.428,3.371-6.1,4.531
				c-2.674,1.163-5.577,1.743-8.714,1.743c-3.254,0-5.751-0.754-7.494-2.265c-1.743-1.508-2.614-3.542-2.614-6.099
				c0-2.671,0.899-4.762,2.701-6.273c1.8-1.508,4.327-2.265,7.581-2.265c5.46,0,10.339,1.394,14.639,4.182V149.076z M712.163,95.93
				c-8.482-6.156-20.799-9.235-36.946-9.235c-6.971,0-13.536,0.553-19.693,1.655c-6.16,1.105-11.154,2.587-14.988,4.443v23.001
				c8.48-4.065,17.776-6.099,27.884-6.099c6.737,0,11.995,0.988,15.772,2.962c3.774,1.977,5.664,4.879,5.664,8.713v1.568
				c-3.023-1.394-6.74-2.554-11.154-3.485c-4.417-0.928-8.774-1.394-13.071-1.394c-11.968,0-21.087,2.469-27.361,7.406
				c-6.274,4.939-9.411,12.11-9.411,21.52c0,9.178,3.224,16.235,9.672,21.171c6.448,4.936,15.015,7.406,25.706,7.406
				c5.925,0,11.328-0.844,16.208-2.527c4.88-1.683,8.714-3.921,11.502-6.709c0,0,8.06,12.934,32.938,6.622
				c0-7.345,0-50.881,0-50.881C724.885,110.801,720.643,102.089,712.163,95.93z M689.856,149.076c-1.394,1.86-3.428,3.371-6.1,4.531
				c-2.674,1.163-5.577,1.743-8.714,1.743c-3.254,0-5.751-0.754-7.494-2.265c-1.743-1.508-2.614-3.542-2.614-6.099
				c0-2.671,0.899-4.762,2.701-6.273c1.8-1.508,4.327-2.265,7.581-2.265c5.46,0,10.339,1.394,14.639,4.182V149.076z"/>
		</g>
	</g>
	<g id="Morado">
		<g>
			<path fill-rule="evenodd" clip-rule="evenodd" fill="#622F84" d="M190.723,19.241C146.322-24.467,19.031,13.375,2.376,62.174
				c-16.655,48.799,57.762,152.177,113.022,153.293c19.05,0.385,39.194-17.623,55.595-43.176
				c-20.076-4.625-22.745-16.386-22.745-16.386c-6.414,13.472-19.162,20.207-38.239,20.207c-10.693,0-19.779-1.848-27.261-5.544
				c-7.486-3.696-13.16-8.706-17.022-15.032c-3.866-6.322-5.798-13.43-5.798-21.316c0-13.307,5.096-23.41,15.296-30.31
				c10.196-6.9,25.657-10.35,46.38-10.35h22.45c-1.812-10.511-10.281-15.771-25.411-15.771c-6.087,0-12.254,0.947-18.503,2.834
				c1.207-0.365-20.092,8.198-25.62-12.05c-5.528-20.248,12.762-26.368,19.823-28.117c10.936-2.711,21.833-4.066,32.688-4.066
				c23.684,0,41.774,5.298,54.275,15.894c12.497,10.596,18.749,26.902,18.749,48.915c0,0,0,1.247,0.001,3.412
				C208.793,69.906,208.002,36.25,190.723,19.241z M104.585,133.246c0,3.585,1.372,6.555,4.119,8.911
				c2.743,2.36,6.485,3.536,11.221,3.536c4.545,0,8.493-1.413,12.216-3.678c10.623-6.457,7.955-21.782,7.955-21.782h-15.909
				C111.119,120.233,104.585,124.574,104.585,133.246z"/>
		</g>
	</g>
	<g id="Rosa">
		<g>
			<path fill-rule="evenodd" clip-rule="evenodd" fill="#D72283" d="M437.488,190.791c-3.109,0-5.66,0.983-7.653,2.949
				c-1.994,1.966-2.991,4.427-2.991,7.382c0,2.982,1.026,5.449,3.079,7.402c2.052,1.953,4.662,2.929,7.829,2.929
				c2.17,0,4.113-0.462,5.828-1.385c1.715-0.923,3.057-2.203,4.025-3.839l-3.607-1.583c-1.467,2.322-3.49,3.483-6.07,3.483
				c-1.877,0-3.49-0.58-4.838-1.742c-1.349-1.161-2.053-2.692-2.111-4.591h16.934l0.044-0.396c0-3.351-0.946-5.957-2.837-7.817
				C443.228,191.721,440.684,190.791,437.488,190.791z M431.286,198.787c0.352-1.425,1.078-2.559,2.177-3.404
				c1.1-0.844,2.412-1.267,3.937-1.267c1.847,0,3.321,0.442,4.421,1.326c1.1,0.884,1.708,1.999,1.825,3.345H431.286z
				 M488.975,199.618l-3.255-0.752c-2.317-0.475-3.475-1.267-3.475-2.375c0-0.686,0.418-1.267,1.254-1.742
				c0.836-0.475,1.781-0.712,2.837-0.712c1.144,0,2.177,0.231,3.101,0.693c0.924,0.462,1.59,1.102,2.001,1.92l3.607-1.346
				c-0.616-1.372-1.693-2.467-3.233-3.285c-1.539-0.818-3.262-1.227-5.168-1.227c-2.493,0-4.538,0.534-6.136,1.603
				c-1.599,1.069-2.397,2.487-2.397,4.255c0,2.692,2.096,4.512,6.29,5.462l3.695,0.831c2.111,0.581,3.167,1.491,3.167,2.731
				c0,0.686-0.433,1.28-1.298,1.781c-0.865,0.502-1.943,0.752-3.233,0.752c-1.203,0-2.309-0.323-3.321-0.97
				c-1.012-0.646-1.781-1.55-2.309-2.711l-3.607,1.385c0.704,1.662,1.876,3.002,3.519,4.017c1.642,1.015,3.548,1.524,5.718,1.524
				c2.492,0,4.559-0.581,6.202-1.742c1.642-1.161,2.463-2.586,2.463-4.275C495.397,202.507,493.256,200.568,488.975,199.618z
				 M534.937,207.633c-0.308,0.066-0.623,0.099-0.946,0.099c-0.704,0-1.335-0.231-1.891-0.693c-0.557-0.461-0.836-1.339-0.836-2.632
				v-9.658h5.278v-3.325h-5.278v-5.937h-4.047v5.937h-3.783v3.325h3.783v10.845c0.029,1.742,0.623,3.101,1.781,4.077
				c1.158,0.977,2.617,1.464,4.377,1.464c1.407,0,2.639-0.172,3.695-0.515l-1.276-3.246
				C535.531,207.481,535.245,207.567,534.937,207.633z M580.763,202.151c0,1.636-0.543,3.042-1.628,4.215
				c-1.085,1.174-2.434,1.761-4.047,1.761c-3.46,0-5.234-1.583-5.322-4.75v-11.953h-4.047v12.191c0,2.507,0.711,4.44,2.133,5.799
				c1.422,1.359,3.453,2.038,6.092,2.038c1.378,0,2.705-0.317,3.981-0.95s2.221-1.425,2.837-2.375h0.176v2.692h3.871v-19.395h-4.047
				V202.151z M633.086,191.424l0.176,2.692h-0.176c-0.704-1.003-1.708-1.807-3.013-2.414c-1.305-0.607-2.749-0.91-4.333-0.91
				c-2.815,0-5.234,1.003-7.258,3.008c-1.994,2.032-2.991,4.473-2.991,7.322c0,2.85,0.997,5.291,2.991,7.322
				c2.023,2.006,4.443,3.008,7.258,3.008c1.583,0,3.027-0.304,4.333-0.91c1.304-0.607,2.309-1.411,3.013-2.414h0.176v2.692h3.871
				v-28.34h-4.047V191.424z M631.282,206.188c-1.261,1.293-2.889,1.939-4.882,1.939c-1.935,0-3.563-0.659-4.882-1.979
				c-1.32-1.293-1.979-2.969-1.979-5.027c0-2.032,0.66-3.707,1.979-5.027c1.32-1.319,2.947-1.979,4.882-1.979
				c1.964,0,3.592,0.66,4.882,1.979c1.32,1.32,1.979,2.995,1.979,5.027C633.261,203.207,632.602,204.896,631.282,206.188z
				 M669.926,182.163c-0.792,0-1.467,0.251-2.023,0.752c-0.557,0.502-0.836,1.108-0.836,1.821c0,0.712,0.278,1.32,0.836,1.821
				c0.557,0.502,1.232,0.752,2.023,0.752c0.792,0,1.466-0.25,2.023-0.752c0.557-0.501,0.836-1.108,0.836-1.821
				c0-0.712-0.279-1.319-0.836-1.821C671.392,182.414,670.717,182.163,669.926,182.163z M667.902,210.819h4.047v-19.395h-4.047
				V210.819z M721.486,193.72c-2.082-1.952-4.722-2.929-7.917-2.929c-3.197,0-5.85,0.977-7.961,2.929
				c-2.082,1.953-3.123,4.42-3.123,7.402c0,2.982,1.041,5.449,3.123,7.402c2.111,1.953,4.765,2.929,7.961,2.929
				c3.196,0,5.835-0.976,7.917-2.929c2.111-1.926,3.167-4.393,3.167-7.402C724.653,198.14,723.597,195.673,721.486,193.72z
				 M718.583,206.188c-1.349,1.293-3.021,1.939-5.014,1.939c-1.995,0-3.666-0.646-5.014-1.939c-1.349-1.293-2.023-2.982-2.023-5.066
				c0-2.058,0.674-3.734,2.023-5.027c1.378-1.319,3.049-1.979,5.014-1.979c1.964,0,3.636,0.66,5.014,1.979
				c1.348,1.293,2.023,2.969,2.023,5.027C720.606,203.207,719.932,204.896,718.583,206.188z M63.659,67.084
				c-4.654-2.898-10.46-3.904-15.806-2.647c-9.037,1.878-16.148,10.36-16.333,19.595c-0.394,6.612,2.642,13.248,7.808,17.37
				c3.914,3.145,8.99,4.824,14.013,4.596c6.338-0.171,12.5-3.453,16.205-8.59c3.249-4.464,4.673-10.227,3.79-15.682
				C72.459,75.736,68.802,70.253,63.659,67.084z"/>
		</g>
	</g>
</g>
</svg>
